<svg xmlns="http://www.w3.org/2000/svg" viewBox="0 0 480 640" role="img" aria-label="Original DevOps antihero operator illustration: an armored engineer in a tactical coat with an angular helmet, a glowing crimson visor bar, a utility rig, and a terminal device."><defs><linearGradient id="mgMetal" x1="0" y1="0" x2="0" y2="1"><stop offset="0" stop-color="#3a3d42"/><stop offset="0.45" stop-color="#232529"/><stop offset="1" stop-color="#0d0e10"/></linearGradient><linearGradient id="mgMetalDark" x1="0" y1="0" x2="0" y2="1"><stop offset="0" stop-color="#26282c"/><stop offset="1" stop-color="#0a0b0c"/></linearGradient><linearGradient id="mgRed" x1="0" y1="0" x2="1" y2="0"><stop offset="0" stop-color="#ff2e3c"/><stop offset="0.5" stop-color="#c2101f"/><stop offset="1" stop-color="#7a0812"/></linearGradient><linearGradient id="mgRim" x1="0" y1="0" x2="1" y2="1"><stop offset="0" stop-color="#ff3b3b" stop-opacity="0.9"/><stop offset="1" stop-color="#ff3b3b" stop-opacity="0"/></linearGradient><radialGradient id="mgScreen" cx="0.5" cy="0.4" r="0.7"><stop offset="0" stop-color="#ff5a5a"/><stop offset="1" stop-color="#7a0f16"/></radialGradient><filter id="mgGlow" x="-60%" y="-60%" width="220%" height="220%"><feGaussianBlur stdDeviation="6" result="b"/><feMerge><feMergeNode in="b"/><feMergeNode in="SourceGraphic"/></feMerge></filter><filter id="mgGlowSoft" x="-100%" y="-100%" width="300%" height="300%"><feGaussianBlur stdDeviation="14"/></filter></defs><ellipse cx="235" cy="560" rx="150" ry="34" fill="#000" opacity="0.35" filter="url(#mgGlowSoft)"/><path d="M330,330 C400,360 420,460 388,540 C370,585 330,610 300,616 L260,470 Z" fill="url(#mgMetalDark)" opacity="0.92"/><path d="M330,330 C400,360 420,460 388,540 C370,585 330,610 300,616 L260,470 Z" fill="none" stroke="url(#mgRim)" stroke-width="3" opacity="0.7"/><path d="M150,430 L120,610 L165,618 L200,460 Z" fill="url(#mgMetal)"/><path d="M270,435 L300,614 L345,606 L318,455 Z" fill="url(#mgMetalDark)"/><path d="M110,600 L172,614 L178,636 L104,636 Z" fill="#111214"/><path d="M292,606 L350,596 L358,634 L286,634 Z" fill="#0c0d0e"/><path d="M150,255 C120,258 108,300 112,340 C116,380 130,410 150,430 L200,460 L270,435 C288,400 300,370 300,335 C300,300 292,268 268,255 Z" fill="url(#mgMetal)"/><path d="M150,255 C120,258 108,300 112,340 C116,380 130,410 150,430 L200,460 L270,435 C288,400 300,370 300,335 C300,300 292,268 268,255 Z" fill="none" stroke="url(#mgRim)" stroke-width="2.5" opacity="0.55"/><path d="M118,262 C96,275 90,310 108,318 C120,306 130,286 140,268 Z" fill="url(#mgMetalDark)"/><path d="M300,262 C324,272 332,306 314,316 C302,302 292,284 282,266 Z" fill="url(#mgMetalDark)"/><path d="M170,300 L250,300 L246,320 L174,320 Z" fill="#15161a"/><polygon points="192,330 208,330 214,346 200,356 186,346" fill="url(#mgRed)" filter="url(#mgGlow)"/><polygon points="225,340 241,340 247,356 233,366 219,356" fill="url(#mgRed)" filter="url(#mgGlow)" opacity="0.9"/><polygon points="196,370 236,370 232,386 200,386" fill="#1b1c20"/><rect x="150" y="405" width="120" height="20" rx="4" fill="#0c0d0e"/><rect x="150" y="405" width="120" height="20" rx="4" fill="none" stroke="url(#mgRim)" stroke-width="1.5" opacity="0.6"/><rect x="160" y="428" width="22" height="26" rx="3" fill="#1a1b1e"/><rect x="196" y="428" width="22" height="26" rx="3" fill="#1a1b1e"/><rect x="232" y="428" width="22" height="26" rx="3" fill="#1a1b1e"/><circle cx="171" cy="438" r="3" fill="#ff3b3b" filter="url(#mgGlow)"/><circle cx="207" cy="438" r="3" fill="#ff3b3b" filter="url(#mgGlow)" opacity="0.7"/><circle cx="243" cy="438" r="3" fill="#ff3b3b" filter="url(#mgGlow)" opacity="0.5"/><path d="M120,268 C90,285 70,320 76,345 C80,362 96,368 108,356 C104,330 108,300 130,278 Z" fill="url(#mgMetalDark)"/><path d="M76,345 C66,368 70,398 90,412 L112,404 C102,384 96,362 96,345 Z" fill="url(#mgMetal)"/><path d="M64,405 C58,420 62,432 76,432 L100,420 L90,400 Z" fill="#1c1d20"/><path d="M76,415 C60,440 56,470 62,486" fill="none" stroke="#26282c" stroke-width="6" stroke-linecap="round"/><circle cx="63" cy="488" r="9" fill="#15161a" stroke="url(#mgRim)" stroke-width="1.5"/><path d="M298,266 C330,280 352,310 348,336 C344,354 328,360 316,350 C320,326 314,298 294,276 Z" fill="url(#mgMetal)"/><path d="M348,336 C362,356 360,382 340,398 L316,388 C328,370 336,352 334,336 Z" fill="url(#mgMetalDark)"/><g transform="translate(300,362) rotate(-8)"><rect x="0" y="0" width="118" height="76" rx="6" fill="#111215"/><rect x="6" y="6" width="106" height="50" rx="3" fill="url(#mgScreen)" filter="url(#mgGlow)"/><rect x="14" y="16" width="46" height="4" fill="#2a0507" opacity="0.7"/><rect x="14" y="26" width="70" height="4" fill="#2a0507" opacity="0.6"/><rect x="14" y="36" width="30" height="4" fill="#2a0507" opacity="0.6"/><rect x="0" y="58" width="118" height="18" rx="4" fill="#1a1b1e"/></g><path d="M198,215 L282,215 L296,255 L268,270 L212,270 L184,255 Z" fill="url(#mgMetalDark)"/><path d="M188,86 L292,86 L318,168 L272,222 L208,222 L162,168 Z" fill="url(#mgMetal)"/><path d="M188,86 L292,86 L318,168 L272,222 L208,222 L162,168 Z" fill="none" stroke="url(#mgRim)" stroke-width="2.5" opacity="0.75"/><path d="M170,150 L182,132 L188,150 L178,166 Z" fill="#0c0d0e"/><path d="M310,150 L298,132 L292,150 L302,166 Z" fill="#0c0d0e"/><polygon points="196,152 284,152 276,178 204,178" fill="#0b0c0d"/><polygon points="204,158 276,158 270,172 210,172" fill="url(#mgRed)" filter="url(#mgGlow)"/><rect x="226" y="160" width="28" height="8" fill="#ffb3b3" opacity="0.85"/><path d="M198,86 C205,70 275,70 282,86" fill="none" stroke="#3a3d42" stroke-width="4" opacity="0.8"/><line x1="150" y1="290" x2="200" y2="330" stroke="#3a3d42" stroke-width="5" opacity="0.7"/><line x1="330" y1="290" x2="280" y2="330" stroke="#3a3d42" stroke-width="5" opacity="0.7"/></svg>
